<?xml version="1.0" encoding="utf-8"?>
<!-- Generator: Adobe Illustrator 16.0.0, SVG Export Plug-In . SVG Version: 6.00 Build 0)  -->
<!DOCTYPE svg PUBLIC "-//W3C//DTD SVG 1.1//EN" "http://www.w3.org/Graphics/SVG/1.1/DTD/svg11.dtd">
<svg version="1.1" id="marker-1" xmlns="http://www.w3.org/2000/svg" xmlns:xlink="http://www.w3.org/1999/xlink" x="0px" y="0px"
	 width="24px" height="31.732px" viewBox="7 9.133 24 31.732" enable-background="new 7 9.133 24 31.732" xml:space="preserve">
<path fill="#1D99DD" d="M19.001,9.133C12.384,9.133,7,14.583,7,21.283c0,2.976,1.085,5.856,3.024,8.067l7.494,10.771
	c0.371,0.475,0.896,0.745,1.442,0.745s1.073-0.27,1.463-0.768l7.407-10.7C29.904,27.121,31,24.315,31,21.283
	C31,14.583,25.618,9.133,19.001,9.133z"/>
<path fill="#32A8F4" d="M19.04,10.432c-5.99,0-10.843,4.949-10.843,11.051c0,2.81,1.07,5.429,2.764,7.378l7.035,10.183
	c0.554,0.713,1.46,0.711,2.017,0l7.007-10.183c1.776-1.966,2.862-4.492,2.862-7.378C29.881,15.381,25.028,10.432,19.04,10.432"/>
<path fill="#1D99DD" d="M27.922,21.171c0,4.928-3.994,8.923-8.922,8.923s-8.922-3.995-8.922-8.923s3.994-8.922,8.922-8.922
	S27.922,16.243,27.922,21.171"/>
<path fill="#FFFFFF" d="M27.34,21.171c0,4.604-3.734,8.34-8.34,8.34c-4.604,0-8.339-3.735-8.339-8.34
	c0-4.605,3.735-8.339,8.339-8.339C23.605,12.832,27.34,16.565,27.34,21.171"/>
</svg>
