<svg  viewBox="0 0 26 26"><path d="M25.519,6.36l-5.958-5.958c-0.393-0.393-1.027-0.392-1.419,0L0.352,18.191c-0.392,0.393-0.393,1.027,0,1.42
	l5.958,5.958c0.393,0.394,1.028,0.393,1.42,0L25.519,7.78C25.912,7.389,25.912,6.752,25.519,6.36z M7.02,23.438l-4.538-4.536
	l1.143-1.144l0.777,0.778c0.393,0.392,1.028,0.392,1.42,0c0.393-0.394,0.393-1.027,0-1.421l-0.777-0.777l1.142-1.142l0.778,0.776
	c0.392,0.393,1.028,0.393,1.42,0c0.392-0.392,0.392-1.027,0-1.42l-0.778-0.778l1.143-1.142l0.777,0.777
	c0.393,0.394,1.028,0.392,1.42,0c0.393-0.392,0.393-1.028,0-1.421l-0.778-0.777l1.143-1.143l0.777,0.778
	c0.393,0.393,1.029,0.393,1.42,0c0.394-0.393,0.394-1.028,0-1.42L12.733,8.65l1.142-1.143l0.778,0.778
	c0.394,0.392,1.027,0.392,1.42,0c0.393-0.393,0.393-1.028,0-1.42l-0.776-0.778l1.142-1.142l0.776,0.777
	c0.394,0.393,1.028,0.393,1.422,0c0.392-0.392,0.392-1.028,0-1.42l-0.778-0.778l0.993-0.992l4.537,4.538L7.02,23.438z"/>
</svg>
